<?xml version="1.0" encoding="iso-8859-1"?>
<!-- Generator: Adobe Illustrator 19.0.0, SVG Export Plug-In . SVG Version: 6.00 Build 0)  -->
<svg version="1.1" id="Layer_1" xmlns="http://www.w3.org/2000/svg" xmlns:xlink="http://www.w3.org/1999/xlink" x="0px" y="0px"
	 viewBox="0 0 464 464" style="enable-background:new 0 0 464 464;" xml:space="preserve">
<circle style="fill:#464655;" cx="232" cy="232" r="198"/>
<path style="fill:#707487;" d="M232,0C103.87,0,0,103.87,0,232s103.87,232,232,232s232-103.87,232-232S360.13,0,232,0z M232,424
	c-106.039,0-192-85.962-192-192c0-106.039,85.961-192,192-192s192,85.961,192,192C424,338.038,338.039,424,232,424z"/>
<circle style="fill:#5B5D6E;" cx="232" cy="232" r="144"/>
<path style="fill:#464655;" d="M232,352c-66.172,0-120-53.828-120-120s53.828-120,120-120s120,53.828,120,120S298.172,352,232,352z
	 M232,128c-57.344,0-104,46.656-104,104s46.656,104,104,104s104-46.656,104-104S289.344,128,232,128z"/>
<circle style="fill:#707487;" cx="232" cy="232" r="104"/>
<circle style="fill:#E4EAF6;" cx="232" cy="232" r="24"/>
<path style="fill:#5B5D6E;" d="M261.906,249.578l63.365-63.365c-2.445-4.971-5.239-9.725-8.416-14.209l-51.278,51.278v-89.635
	c-5.165-1.764-10.505-3.113-16-4.05v72.497l-63.365-63.365c-4.971,2.445-9.725,5.239-14.209,8.416l51.278,51.278h-89.635
	c-1.764,5.165-3.113,10.505-4.05,16h72.494l-63.362,63.365c2.445,4.971,5.239,9.725,8.416,14.209l51.278-51.28v89.637
	c5.165,1.764,10.505,3.113,16,4.05v-72.497l63.365,63.365c4.971-2.445,9.725-5.239,14.209-8.416l-51.278-51.278h89.635
	c1.764-5.165,3.113-10.505,4.05-16H261.906L261.906,249.578z M249.578,239.281l-10.297,10.297h-14.563l-10.297-10.297v-14.566
	l10.293-10.293h14.566l10.297,10.297v14.562H249.578z"/>
<g>
</g>
<g>
</g>
<g>
</g>
<g>
</g>
<g>
</g>
<g>
</g>
<g>
</g>
<g>
</g>
<g>
</g>
<g>
</g>
<g>
</g>
<g>
</g>
<g>
</g>
<g>
</g>
<g>
</g>
</svg>
